<mxfile host="app.diagrams.net" modified="2024-02-10T18:16:12.685Z" agent="Mozilla/5.0 (Windows NT 10.0; Win64; x64) AppleWebKit/537.36 (KHTML, like Gecko) Chrome/120.0.0.0 YaBrowser/24.1.0.0 Safari/537.36" etag="gP3F1fHijCtxRN1017oD" version="23.1.2" type="device">
  <diagram name="Страница — 1" id="0C_Wjpt9jZ2ampijQTkS">
    <mxGraphModel dx="1434" dy="791" grid="1" gridSize="10" guides="1" tooltips="1" connect="1" arrows="1" fold="1" page="1" pageScale="1" pageWidth="827" pageHeight="1169" math="0" shadow="0">
      <root>
        <mxCell id="0" />
        <mxCell id="1" parent="0" />
        <mxCell id="Sncbbl7vKEK-5stRUwno-19" value="" style="edgeStyle=orthogonalEdgeStyle;rounded=0;orthogonalLoop=1;jettySize=auto;html=1;" parent="1" target="Sncbbl7vKEK-5stRUwno-18" edge="1">
          <mxGeometry relative="1" as="geometry">
            <mxPoint x="410" y="165" as="sourcePoint" />
          </mxGeometry>
        </mxCell>
        <mxCell id="Sncbbl7vKEK-5stRUwno-45" value="" style="edgeStyle=orthogonalEdgeStyle;rounded=0;orthogonalLoop=1;jettySize=auto;html=1;" parent="1" source="Sncbbl7vKEK-5stRUwno-2" target="Sncbbl7vKEK-5stRUwno-44" edge="1">
          <mxGeometry relative="1" as="geometry" />
        </mxCell>
        <mxCell id="Sncbbl7vKEK-5stRUwno-2" value="Начало&lt;br&gt;" style="ellipse;whiteSpace=wrap;html=1;" parent="1" vertex="1">
          <mxGeometry x="350" y="35" width="120" height="40" as="geometry" />
        </mxCell>
        <mxCell id="Sncbbl7vKEK-5stRUwno-3" value="&lt;font style=&quot;font-size: 15px;&quot;&gt;&lt;b&gt;27 вариант.&lt;/b&gt;&lt;br&gt;Дана строка. Заменить гласные буквы шифром(&lt;span style=&quot;font-family: Arial;&quot;&gt;a&lt;/span&gt;&lt;span style=&quot;font-family: Arial;&quot;&gt;-123 о-999 =&amp;gt; Точка -&amp;gt; Т999чк123)&lt;br&gt;&lt;u style=&quot;font-style: italic;&quot;&gt;Выполнил:&lt;/u&gt;&amp;nbsp;Скворцов Андрей 23-ВМз&lt;br&gt;&lt;/span&gt;&lt;/font&gt;" style="text;html=1;strokeColor=none;fillColor=none;align=center;verticalAlign=middle;whiteSpace=wrap;rounded=0;" parent="1" vertex="1">
          <mxGeometry x="20" y="35" width="300" height="90" as="geometry" />
        </mxCell>
        <mxCell id="Sncbbl7vKEK-5stRUwno-4" value="Ввод строки str" style="shape=parallelogram;perimeter=parallelogramPerimeter;whiteSpace=wrap;html=1;fixedSize=1;" parent="1" vertex="1">
          <mxGeometry x="332.5" y="305" width="155" height="40" as="geometry" />
        </mxCell>
        <mxCell id="Sncbbl7vKEK-5stRUwno-12" value="" style="edgeStyle=orthogonalEdgeStyle;rounded=0;orthogonalLoop=1;jettySize=auto;html=1;exitX=0.5;exitY=1;exitDx=0;exitDy=0;" parent="1" source="Sncbbl7vKEK-5stRUwno-4" target="Sncbbl7vKEK-5stRUwno-11" edge="1">
          <mxGeometry relative="1" as="geometry">
            <mxPoint x="410" y="455" as="sourcePoint" />
          </mxGeometry>
        </mxCell>
        <mxCell id="ZvfNpoU0vpPJpaTs5SK1-37" value="" style="edgeStyle=orthogonalEdgeStyle;rounded=0;orthogonalLoop=1;jettySize=auto;html=1;" parent="1" source="Sncbbl7vKEK-5stRUwno-11" target="ZvfNpoU0vpPJpaTs5SK1-36" edge="1">
          <mxGeometry relative="1" as="geometry" />
        </mxCell>
        <mxCell id="Sncbbl7vKEK-5stRUwno-11" value="str = Вызов вспомогательного алгоритма 2, отправляя в алгоритм переменные codeArr, str, symArr" style="shape=process;whiteSpace=wrap;html=1;backgroundOutline=1;rounded=0;" parent="1" vertex="1">
          <mxGeometry x="327.5" y="382.5" width="165" height="95" as="geometry" />
        </mxCell>
        <mxCell id="Sncbbl7vKEK-5stRUwno-23" value="" style="edgeStyle=orthogonalEdgeStyle;rounded=0;orthogonalLoop=1;jettySize=auto;html=1;" parent="1" source="Sncbbl7vKEK-5stRUwno-13" target="Sncbbl7vKEK-5stRUwno-22" edge="1">
          <mxGeometry relative="1" as="geometry" />
        </mxCell>
        <mxCell id="Sncbbl7vKEK-5stRUwno-13" value="Начало (1)" style="ellipse;whiteSpace=wrap;html=1;" parent="1" vertex="1">
          <mxGeometry x="1200" y="20" width="100" height="45" as="geometry" />
        </mxCell>
        <mxCell id="Sncbbl7vKEK-5stRUwno-21" value="" style="edgeStyle=orthogonalEdgeStyle;rounded=0;orthogonalLoop=1;jettySize=auto;html=1;" parent="1" source="Sncbbl7vKEK-5stRUwno-18" target="Sncbbl7vKEK-5stRUwno-4" edge="1">
          <mxGeometry relative="1" as="geometry" />
        </mxCell>
        <mxCell id="Sncbbl7vKEK-5stRUwno-18" value="codeArr = Вызов вспомогательного алгоритма 1, отправляя в алгоритм переменную symArr" style="shape=process;whiteSpace=wrap;html=1;backgroundOutline=1;" parent="1" vertex="1">
          <mxGeometry x="317.5" y="205" width="185" height="75" as="geometry" />
        </mxCell>
        <mxCell id="Sncbbl7vKEK-5stRUwno-34" value="" style="edgeStyle=orthogonalEdgeStyle;rounded=0;orthogonalLoop=1;jettySize=auto;html=1;" parent="1" source="Sncbbl7vKEK-5stRUwno-22" target="Sncbbl7vKEK-5stRUwno-33" edge="1">
          <mxGeometry relative="1" as="geometry" />
        </mxCell>
        <mxCell id="Sncbbl7vKEK-5stRUwno-22" value="codeArr = [],&lt;br&gt;&amp;nbsp;i = 0" style="whiteSpace=wrap;html=1;" parent="1" vertex="1">
          <mxGeometry x="1175" y="85" width="150" height="75" as="geometry" />
        </mxCell>
        <mxCell id="Sncbbl7vKEK-5stRUwno-29" value="Основной алгоритм" style="text;html=1;strokeColor=none;fillColor=none;align=center;verticalAlign=middle;whiteSpace=wrap;rounded=0;" parent="1" vertex="1">
          <mxGeometry x="475" y="40" width="60" height="30" as="geometry" />
        </mxCell>
        <mxCell id="Sncbbl7vKEK-5stRUwno-30" value="Вспомогательный алгоритм для ввода шифра каждой буквы" style="text;html=1;strokeColor=none;fillColor=none;align=center;verticalAlign=middle;whiteSpace=wrap;rounded=0;" parent="1" vertex="1">
          <mxGeometry x="1330" y="27.5" width="60" height="30" as="geometry" />
        </mxCell>
        <mxCell id="Sncbbl7vKEK-5stRUwno-31" value="&lt;div style=&quot;&quot;&gt;&lt;b&gt;&lt;br&gt;&lt;/b&gt;&lt;/div&gt;&lt;b&gt;&lt;div style=&quot;&quot;&gt;&lt;b style=&quot;background-color: initial;&quot;&gt;Все гласные буквы:&amp;nbsp;&lt;/b&gt;&lt;/div&gt;&lt;/b&gt;&lt;div style=&quot;&quot;&gt;&lt;span style=&quot;background-color: initial;&quot;&gt;а, е, ё, и, о, у, ы, э, ю, я&lt;/span&gt;&lt;br&gt;&lt;/div&gt;&lt;div style=&quot;&quot;&gt;&lt;br&gt;&lt;/div&gt;&lt;div style=&quot;&quot;&gt;&lt;span style=&quot;background-color: initial;&quot;&gt;В массиве шифр располагаться будет по алфавиту (регистр не учитывается)&lt;/span&gt;&lt;/div&gt;" style="text;html=1;strokeColor=none;fillColor=none;align=center;verticalAlign=middle;whiteSpace=wrap;rounded=0;" parent="1" vertex="1">
          <mxGeometry x="1020" y="110" width="150" height="30" as="geometry" />
        </mxCell>
        <mxCell id="Sncbbl7vKEK-5stRUwno-36" value="" style="edgeStyle=orthogonalEdgeStyle;rounded=0;orthogonalLoop=1;jettySize=auto;html=1;" parent="1" source="Sncbbl7vKEK-5stRUwno-33" target="Sncbbl7vKEK-5stRUwno-35" edge="1">
          <mxGeometry relative="1" as="geometry">
            <Array as="points">
              <mxPoint x="1095" y="235" />
            </Array>
          </mxGeometry>
        </mxCell>
        <mxCell id="Sncbbl7vKEK-5stRUwno-47" value="" style="edgeStyle=orthogonalEdgeStyle;rounded=0;orthogonalLoop=1;jettySize=auto;html=1;" parent="1" source="Sncbbl7vKEK-5stRUwno-33" target="Sncbbl7vKEK-5stRUwno-46" edge="1">
          <mxGeometry relative="1" as="geometry" />
        </mxCell>
        <mxCell id="Sncbbl7vKEK-5stRUwno-33" value="i &amp;lt; symArr.Length" style="rhombus;whiteSpace=wrap;html=1;" parent="1" vertex="1">
          <mxGeometry x="1190" y="195" width="120" height="80" as="geometry" />
        </mxCell>
        <mxCell id="Sncbbl7vKEK-5stRUwno-39" value="" style="edgeStyle=orthogonalEdgeStyle;rounded=0;orthogonalLoop=1;jettySize=auto;html=1;" parent="1" source="Sncbbl7vKEK-5stRUwno-35" target="Sncbbl7vKEK-5stRUwno-38" edge="1">
          <mxGeometry relative="1" as="geometry" />
        </mxCell>
        <mxCell id="Sncbbl7vKEK-5stRUwno-35" value="Ввод шифра &lt;br&gt;в codeArr[i] для буквы&lt;br&gt;symArr[i]&amp;nbsp;" style="shape=parallelogram;perimeter=parallelogramPerimeter;whiteSpace=wrap;html=1;fixedSize=1;" parent="1" vertex="1">
          <mxGeometry x="1020" y="265" width="150" height="60" as="geometry" />
        </mxCell>
        <mxCell id="Sncbbl7vKEK-5stRUwno-37" value="True" style="text;html=1;strokeColor=none;fillColor=none;align=center;verticalAlign=middle;whiteSpace=wrap;rounded=0;" parent="1" vertex="1">
          <mxGeometry x="1140" y="205" width="60" height="30" as="geometry" />
        </mxCell>
        <mxCell id="Sncbbl7vKEK-5stRUwno-43" value="" style="edgeStyle=orthogonalEdgeStyle;rounded=0;orthogonalLoop=1;jettySize=auto;html=1;entryX=0.5;entryY=1;entryDx=0;entryDy=0;" parent="1" source="Sncbbl7vKEK-5stRUwno-38" target="Sncbbl7vKEK-5stRUwno-33" edge="1">
          <mxGeometry relative="1" as="geometry">
            <mxPoint x="1155" y="370" as="targetPoint" />
            <Array as="points">
              <mxPoint x="1250" y="370" />
            </Array>
          </mxGeometry>
        </mxCell>
        <mxCell id="Sncbbl7vKEK-5stRUwno-38" value="i++" style="whiteSpace=wrap;html=1;" parent="1" vertex="1">
          <mxGeometry x="1075" y="355" width="40" height="30" as="geometry" />
        </mxCell>
        <mxCell id="Sncbbl7vKEK-5stRUwno-40" style="edgeStyle=orthogonalEdgeStyle;rounded=0;orthogonalLoop=1;jettySize=auto;html=1;exitX=0.5;exitY=1;exitDx=0;exitDy=0;" parent="1" source="Sncbbl7vKEK-5stRUwno-38" target="Sncbbl7vKEK-5stRUwno-38" edge="1">
          <mxGeometry relative="1" as="geometry" />
        </mxCell>
        <mxCell id="Sncbbl7vKEK-5stRUwno-44" value="codeArr = [],&lt;br&gt;symArr = [&#39;а&#39;, &#39;е&#39;, &#39;ё&#39;, &#39;и&#39;, &#39;о&#39;, &#39;у&#39;, &#39;ы&#39;, э&#39;&#39;, &#39;ю&#39;, &#39;я&#39;]" style="whiteSpace=wrap;html=1;" parent="1" vertex="1">
          <mxGeometry x="350" y="110" width="120" height="60" as="geometry" />
        </mxCell>
        <mxCell id="Sncbbl7vKEK-5stRUwno-46" value="Возврат codeArr&lt;br&gt;(Конец)" style="ellipse;whiteSpace=wrap;html=1;" parent="1" vertex="1">
          <mxGeometry x="1380" y="210" width="110" height="50" as="geometry" />
        </mxCell>
        <mxCell id="Sncbbl7vKEK-5stRUwno-48" value="False" style="text;html=1;strokeColor=none;fillColor=none;align=center;verticalAlign=middle;whiteSpace=wrap;rounded=0;" parent="1" vertex="1">
          <mxGeometry x="1290" y="205" width="60" height="30" as="geometry" />
        </mxCell>
        <mxCell id="ZvfNpoU0vpPJpaTs5SK1-1" value="" style="edgeStyle=orthogonalEdgeStyle;rounded=0;orthogonalLoop=1;jettySize=auto;html=1;" parent="1" source="ZvfNpoU0vpPJpaTs5SK1-2" target="ZvfNpoU0vpPJpaTs5SK1-4" edge="1">
          <mxGeometry relative="1" as="geometry" />
        </mxCell>
        <mxCell id="ZvfNpoU0vpPJpaTs5SK1-2" value="Начало (2)" style="ellipse;whiteSpace=wrap;html=1;" parent="1" vertex="1">
          <mxGeometry x="1195" y="440" width="100" height="45" as="geometry" />
        </mxCell>
        <mxCell id="ZvfNpoU0vpPJpaTs5SK1-3" value="" style="edgeStyle=orthogonalEdgeStyle;rounded=0;orthogonalLoop=1;jettySize=auto;html=1;" parent="1" source="ZvfNpoU0vpPJpaTs5SK1-4" target="ZvfNpoU0vpPJpaTs5SK1-9" edge="1">
          <mxGeometry relative="1" as="geometry" />
        </mxCell>
        <mxCell id="ZvfNpoU0vpPJpaTs5SK1-4" value="returnStr = &quot;&quot;&lt;br&gt;&amp;nbsp;i = 0" style="whiteSpace=wrap;html=1;" parent="1" vertex="1">
          <mxGeometry x="1170" y="512.5" width="150" height="50" as="geometry" />
        </mxCell>
        <mxCell id="ZvfNpoU0vpPJpaTs5SK1-5" value="Вспомогательный алгоритм для шифрования строки" style="text;html=1;strokeColor=none;fillColor=none;align=center;verticalAlign=middle;whiteSpace=wrap;rounded=0;" parent="1" vertex="1">
          <mxGeometry x="1325" y="447.5" width="60" height="30" as="geometry" />
        </mxCell>
        <mxCell id="ZvfNpoU0vpPJpaTs5SK1-8" value="" style="edgeStyle=orthogonalEdgeStyle;rounded=0;orthogonalLoop=1;jettySize=auto;html=1;" parent="1" source="ZvfNpoU0vpPJpaTs5SK1-9" target="ZvfNpoU0vpPJpaTs5SK1-16" edge="1">
          <mxGeometry relative="1" as="geometry" />
        </mxCell>
        <mxCell id="ZvfNpoU0vpPJpaTs5SK1-20" value="" style="edgeStyle=orthogonalEdgeStyle;rounded=0;orthogonalLoop=1;jettySize=auto;html=1;" parent="1" source="ZvfNpoU0vpPJpaTs5SK1-9" target="ZvfNpoU0vpPJpaTs5SK1-19" edge="1">
          <mxGeometry relative="1" as="geometry">
            <Array as="points">
              <mxPoint x="1095" y="655" />
            </Array>
          </mxGeometry>
        </mxCell>
        <mxCell id="ZvfNpoU0vpPJpaTs5SK1-9" value="i &amp;lt; len(str)" style="rhombus;whiteSpace=wrap;html=1;" parent="1" vertex="1">
          <mxGeometry x="1205" y="615" width="80" height="80" as="geometry" />
        </mxCell>
        <mxCell id="ZvfNpoU0vpPJpaTs5SK1-12" value="True" style="text;html=1;strokeColor=none;fillColor=none;align=center;verticalAlign=middle;whiteSpace=wrap;rounded=0;" parent="1" vertex="1">
          <mxGeometry x="1140" y="625" width="60" height="30" as="geometry" />
        </mxCell>
        <mxCell id="ZvfNpoU0vpPJpaTs5SK1-21" value="" style="edgeStyle=orthogonalEdgeStyle;rounded=0;orthogonalLoop=1;jettySize=auto;html=1;" parent="1" source="ZvfNpoU0vpPJpaTs5SK1-14" target="ZvfNpoU0vpPJpaTs5SK1-9" edge="1">
          <mxGeometry relative="1" as="geometry" />
        </mxCell>
        <mxCell id="ZvfNpoU0vpPJpaTs5SK1-14" value="i++" style="whiteSpace=wrap;html=1;" parent="1" vertex="1">
          <mxGeometry x="1222.5" y="900" width="45" height="30" as="geometry" />
        </mxCell>
        <mxCell id="ZvfNpoU0vpPJpaTs5SK1-15" style="edgeStyle=orthogonalEdgeStyle;rounded=0;orthogonalLoop=1;jettySize=auto;html=1;exitX=0.5;exitY=1;exitDx=0;exitDy=0;" parent="1" source="ZvfNpoU0vpPJpaTs5SK1-14" target="ZvfNpoU0vpPJpaTs5SK1-14" edge="1">
          <mxGeometry relative="1" as="geometry" />
        </mxCell>
        <mxCell id="ZvfNpoU0vpPJpaTs5SK1-16" value="Возврат returnStr&lt;br&gt;(Конец)" style="ellipse;whiteSpace=wrap;html=1;" parent="1" vertex="1">
          <mxGeometry x="1375" y="630" width="110" height="50" as="geometry" />
        </mxCell>
        <mxCell id="ZvfNpoU0vpPJpaTs5SK1-17" value="False" style="text;html=1;strokeColor=none;fillColor=none;align=center;verticalAlign=middle;whiteSpace=wrap;rounded=0;" parent="1" vertex="1">
          <mxGeometry x="1285" y="625" width="60" height="30" as="geometry" />
        </mxCell>
        <mxCell id="ZvfNpoU0vpPJpaTs5SK1-23" value="" style="edgeStyle=orthogonalEdgeStyle;rounded=0;orthogonalLoop=1;jettySize=auto;html=1;" parent="1" source="ZvfNpoU0vpPJpaTs5SK1-19" target="ZvfNpoU0vpPJpaTs5SK1-22" edge="1">
          <mxGeometry relative="1" as="geometry" />
        </mxCell>
        <mxCell id="ZvfNpoU0vpPJpaTs5SK1-43" value="" style="edgeStyle=orthogonalEdgeStyle;rounded=0;orthogonalLoop=1;jettySize=auto;html=1;" parent="1" source="ZvfNpoU0vpPJpaTs5SK1-19" target="ZvfNpoU0vpPJpaTs5SK1-40" edge="1">
          <mxGeometry relative="1" as="geometry">
            <Array as="points">
              <mxPoint x="1175" y="730" />
            </Array>
          </mxGeometry>
        </mxCell>
        <mxCell id="ZvfNpoU0vpPJpaTs5SK1-19" value="str[i] входит в symArr?&amp;nbsp;" style="rhombus;whiteSpace=wrap;html=1;" parent="1" vertex="1">
          <mxGeometry x="1043.75" y="690" width="102.5" height="80" as="geometry" />
        </mxCell>
        <mxCell id="ZvfNpoU0vpPJpaTs5SK1-46" value="" style="edgeStyle=orthogonalEdgeStyle;rounded=0;orthogonalLoop=1;jettySize=auto;html=1;startSize=6;" parent="1" edge="1">
          <mxGeometry relative="1" as="geometry">
            <mxPoint x="957" y="850.0000000000001" as="sourcePoint" />
            <mxPoint x="1222" y="920" as="targetPoint" />
            <Array as="points">
              <mxPoint x="957" y="920" />
            </Array>
          </mxGeometry>
        </mxCell>
        <mxCell id="ZvfNpoU0vpPJpaTs5SK1-22" value="returnStr += codeArr[Array.IndexOf(symArr, Convert.ToString(str[i]))]" style="whiteSpace=wrap;html=1;" parent="1" vertex="1">
          <mxGeometry x="870" y="790" width="170" height="60" as="geometry" />
        </mxCell>
        <mxCell id="ZvfNpoU0vpPJpaTs5SK1-27" value="False" style="text;html=1;strokeColor=none;fillColor=none;align=center;verticalAlign=middle;whiteSpace=wrap;rounded=0;" parent="1" vertex="1">
          <mxGeometry x="1140" y="695" width="60" height="30" as="geometry" />
        </mxCell>
        <mxCell id="ZvfNpoU0vpPJpaTs5SK1-28" value="True" style="text;html=1;strokeColor=none;fillColor=none;align=center;verticalAlign=middle;whiteSpace=wrap;rounded=0;" parent="1" vertex="1">
          <mxGeometry x="980" y="695" width="60" height="30" as="geometry" />
        </mxCell>
        <mxCell id="ZvfNpoU0vpPJpaTs5SK1-39" value="" style="edgeStyle=orthogonalEdgeStyle;rounded=0;orthogonalLoop=1;jettySize=auto;html=1;" parent="1" source="ZvfNpoU0vpPJpaTs5SK1-36" target="ZvfNpoU0vpPJpaTs5SK1-38" edge="1">
          <mxGeometry relative="1" as="geometry" />
        </mxCell>
        <mxCell id="ZvfNpoU0vpPJpaTs5SK1-36" value="Вывод строки str" style="shape=parallelogram;perimeter=parallelogramPerimeter;whiteSpace=wrap;html=1;fixedSize=1;rounded=0;" parent="1" vertex="1">
          <mxGeometry x="350" y="525" width="120" height="60" as="geometry" />
        </mxCell>
        <mxCell id="ZvfNpoU0vpPJpaTs5SK1-38" value="Конец&lt;br&gt;" style="ellipse;whiteSpace=wrap;html=1;rounded=0;" parent="1" vertex="1">
          <mxGeometry x="370" y="615" width="80" height="35" as="geometry" />
        </mxCell>
        <mxCell id="ZvfNpoU0vpPJpaTs5SK1-40" value="returnStr += str[i]" style="whiteSpace=wrap;html=1;" parent="1" vertex="1">
          <mxGeometry x="1115" y="790" width="120" height="60" as="geometry" />
        </mxCell>
        <mxCell id="ZvfNpoU0vpPJpaTs5SK1-47" value="" style="endArrow=none;html=1;rounded=0;entryX=0.5;entryY=1;entryDx=0;entryDy=0;" parent="1" target="ZvfNpoU0vpPJpaTs5SK1-40" edge="1">
          <mxGeometry width="50" height="50" relative="1" as="geometry">
            <mxPoint x="1175" y="920" as="sourcePoint" />
            <mxPoint x="1080" y="830" as="targetPoint" />
          </mxGeometry>
        </mxCell>
      </root>
    </mxGraphModel>
  </diagram>
</mxfile>
